<?xml version="1.0" encoding="utf-8"?>
<svg version="1.1" xmlns:xlink="http://www.w3.org/1999/xlink" width="150px" height="124px" xmlns="http://www.w3.org/2000/svg">
  <g transform="matrix(1 0 0 1 -361 -642 )">
    <path d="M 361 642  L 511 642  L 511 766  L 361 766  L 361 642  " fill-rule="nonzero" fill="#cccccc" stroke="none" />
    <path d="M 370 651  L 502 651  L 502 757  L 370 757  L 370 651  " fill-rule="nonzero" fill="#ffffff" stroke="none" />
    <path d="M 448.3 679.2  C 443.092 679.2  439 675.108  439 669.9  C 439 664.692  443.092 660.6  448.3 660.6  C 453.508 660.6  457.6 664.692  457.6 669.9  C 457.6 675.108  453.508 679.2  448.3 679.2  " fill-rule="nonzero" fill="#cccccc" stroke="none" />
    <path d="M 373 754  L 373 699  L 404.5 674  L 448.6 704.4  L 473.8 689  L 499 704.4  L 499 754  L 373 754  " fill-rule="nonzero" fill="#169bd5" stroke="none" />
  </g>
</svg>